# xmcd
#
# Track frame offsets: 
#        150
#        16148
#        31797
#        54883
#        72684
#        88100
#        106625
#        125677
#        140876
#        156714
#        171429
#        190865
#        206775
#        224402
#        239602
#        256229
#
# Disc length: 3777 seconds
#
# Revision: 0
# Processed by: cddbd v1.4PL0 Copyright (c) Steve Scherf et al.
# Submitted via: ExactAudioCopy v0.90a11
#
DISCID=f30ebf10
DTITLE=DJ MP4-New Beat - DJ MP4-New Beat
DYEAR=1900
DGENRE=
TTITLE0=The Books is On The Table Feat Charlie Jackson
TTITLE1=The Name of The DJ
TTITLE2=Panic Feat DJ MP3
TTITLE3=Return To Ibiza [Generator]Feat DJ Fat Pig
TTITLE4=That Thing
TTITLE5=New Beat
TTITLE6=Halloween remix by DJ MP3
TTITLE7=Check It Out
TTITLE8=Pump Feat DJ MP3
TTITLE9=What's This
TTITLE10=The Best DJ
TTITLE11=Shake That Butt Feat Billy
TTITLE12=Arabian Nights[Feiticeira 2]
TTITLE13=Table Remix 2003
TTITLE14=Smoke Machine remix 2003
TTITLE15=MP4
EXTD=
EXTT0=
EXTT1=
EXTT2=
EXTT3=
EXTT4=
EXTT5=
EXTT6=
EXTT7=
EXTT8=
EXTT9=
EXTT10=
EXTT11=
EXTT12=
EXTT13=
EXTT14=
EXTT15=
PLAYORDER=
